<svg xmlns="http://www.w3.org/2000/svg" width="512" height="512" viewBox="0 0 512 512">
  <defs>
    <linearGradient id="waterGradient" x1="0%" y1="0%" x2="0%" y2="100%">
      <stop offset="0%" style="stop-color:#4FC3F7;stop-opacity:1" />
      <stop offset="100%" style="stop-color:#2196F3;stop-opacity:1" />
    </linearGradient>
  </defs>
  <path d="M256 48c-79.5 0-144 64.5-144 144 0 33.5 11.5 64.3 30.8 88.8l81.2 103c8.9 11.3 22.4 17.9 36.7 17.9s27.8-6.6 36.7-17.9l81.2-103C397.5 256.3 409 225.5 409 192c0-79.5-64.5-144-144-144zm0 240c-53 0-96-43-96-96s43-96 96-96 96 43 96 96-43 96-96 96z" fill="url(#waterGradient)"/>
  <circle cx="256" cy="192" r="64" fill="#E3F2FD" opacity="0.5"/>
</svg>